<svg xmlns="http://www.w3.org/2000/svg" version="1.1" xmlns:xlink="http://www.w3.org/1999/xlink" xmlns:svgjs="http://svgjs.dev/svgjs" width="2000" height="1500" viewBox="0 0 2000 1500"><rect width="2000" height="1500" fill="#000000"></rect><g transform="matrix(0.75,0,0,0.75,249.090909090909,282.7536437246963)"><svg viewBox="0 0 396 247" data-background-color="#161618" preserveAspectRatio="xMidYMid meet" height="1247" width="2000" xmlns="http://www.w3.org/2000/svg" xmlns:xlink="http://www.w3.org/1999/xlink"><g id="tight-bounds" transform="matrix(1,0,0,1,0.2400000000000091,-0.09999999999999432)"><svg viewBox="0 0 395.52 247.2" height="247.2" width="395.52"><g><svg></svg></g><g><svg viewBox="0 0 395.52 247.2" height="247.2" width="395.52"><g transform="matrix(1,0,0,1,39.55199999999999,41.382331914893626)"><svg viewBox="0 0 316.416 164.43533617021274" height="164.43533617021274" width="316.416"><g><svg viewBox="0 0 316.416 164.43533617021274" height="164.43533617021274" width="316.416"><g><svg viewBox="0 0 316.416 164.43533617021274" height="164.43533617021274" width="316.416"><g><svg viewBox="0 0 316.416 164.43533617021274" height="164.43533617021274" width="316.416"><g id="textblocktransform"><svg viewBox="0 0 316.416 164.43533617021274" height="164.43533617021274" width="316.416" id="textblock"><g><svg viewBox="0 0 316.416 164.43533617021274" height="164.43533617021274" width="316.416"><g transform="matrix(1,0,0,1,0,0)"><svg width="316.416" viewBox="96.45 -36.25 188 99.15" height="164.43533617021274" data-palette-color="#ffffff"><svg></svg><svg></svg><g class="wordmark-text-0" data-fill-palette-color="primary" id="text-0"><path d="M143.23-0.05c-0.033 0.133-0.217 0.2-0.55 0.2v0c-0.267 0-0.45-0.067-0.55-0.2v0l-12.45-27.05c-0.6-1.333-1.2-2.26-1.8-2.78-0.6-0.513-1.417-0.77-2.45-0.77v0c-0.1 0-0.15-0.1-0.15-0.3 0-0.2 0.05-0.3 0.15-0.3v0l1.9 0.05c0.933 0.067 1.683 0.1 2.25 0.1v0c1.2 0 2.5-0.033 3.9-0.1v0l2.05-0.05c0.1 0 0.15 0.1 0.15 0.3 0 0.2-0.05 0.3-0.15 0.3v0c-1 0-1.74 0.117-2.22 0.35-0.487 0.233-0.73 0.633-0.73 1.2v0c0 0.5 0.167 1.1 0.5 1.8v0l11.1 23.85-1.8 2.4 6.55-16.35 0.75 1.1zM172.23-31.25c0.067 0 0.1 0.1 0.1 0.3 0 0.2-0.033 0.3-0.1 0.3v0c-1.133 0-2.117 0.3-2.95 0.9-0.833 0.6-1.55 1.617-2.15 3.05v0l-10.65 26.65c-0.033 0.133-0.217 0.2-0.55 0.2v0c-0.267 0-0.45-0.067-0.55-0.2v0l-12.4-27.05c-0.6-1.3-1.2-2.217-1.8-2.75-0.6-0.533-1.383-0.8-2.35-0.8v0c-0.1 0-0.15-0.1-0.15-0.3 0-0.2 0.05-0.3 0.15-0.3v0l1.9 0.05c0.867 0.067 1.583 0.1 2.15 0.1v0c0.933 0 1.9-0.033 2.9-0.1v0l1.35-0.05c0.1 0 0.15 0.1 0.15 0.3 0 0.2-0.05 0.3-0.15 0.3v0c-0.6 0-1.033 0.057-1.3 0.17-0.267 0.12-0.4 0.33-0.4 0.63v0c0 0.4 0.3 1.25 0.9 2.55v0l11.15 23.85-1.8 2.4 10.35-25.85c0.267-0.7 0.4-1.25 0.4-1.65v0c0-0.733-0.307-1.267-0.92-1.6-0.62-0.333-1.58-0.5-2.88-0.5v0c-0.1 0-0.15-0.1-0.15-0.3 0-0.2 0.05-0.3 0.15-0.3v0l2.1 0.05c1.133 0.067 2.15 0.1 3.05 0.1v0c0.667 0 1.433-0.033 2.3-0.1v0zM152.98-27c0.4-0.9 0.6-1.633 0.6-2.2v0c0-0.967-0.717-1.45-2.15-1.45v0c-0.1 0-0.15-0.1-0.15-0.3 0-0.2 0.05-0.3 0.15-0.3v0l1.15 0.05c0.667 0.067 1.367 0.1 2.1 0.1v0c0.667 0 1.433-0.033 2.3-0.1v0l2.05-0.05c0.067 0 0.1 0.1 0.1 0.3 0 0.2-0.033 0.3-0.1 0.3v0c-1.133 0-2.09 0.29-2.87 0.87-0.787 0.587-1.48 1.613-2.08 3.08v0l-4.15 10.4-0.75-1.1zM183.63 0.3c-0.133 0.067-0.267 0.1-0.4 0.1v0c-0.5 0-0.933-0.383-1.3-1.15-0.367-0.767-0.55-1.783-0.55-3.05v0-9.45c0-3.733-1.05-5.6-3.15-5.6v0c-1.133 0-1.99 0.373-2.57 1.12-0.587 0.753-0.98 1.613-1.18 2.58v0c-0.133 0.633-0.323 1.133-0.57 1.5-0.253 0.367-0.697 0.55-1.33 0.55v0c-0.533 0-0.94-0.15-1.22-0.45-0.287-0.3-0.43-0.65-0.43-1.05v0c0-0.8 0.517-1.6 1.55-2.4 1.033-0.8 2.267-1.467 3.7-2 1.433-0.533 2.717-0.8 3.85-0.8v0c1.367 0 2.4 0.433 3.1 1.3 0.7 0.867 1.05 2.117 1.05 3.75v0 9.35c0 1.167 0.15 2.017 0.45 2.55 0.3 0.533 0.783 0.8 1.45 0.8v0c0.667 0 1.5-0.217 2.5-0.65v0h0.1c0.133 0 0.217 0.073 0.25 0.22 0.033 0.153-0.017 0.263-0.15 0.33v0zM174.63 0.35c-1.233 0-2.19-0.327-2.87-0.98-0.687-0.647-1.03-1.47-1.03-2.47v0c0-1 0.4-1.867 1.2-2.6 0.8-0.733 2.117-1.433 3.95-2.1v0l6-2.25 0.15 0.65-5.3 2.05c-0.933 0.367-1.607 0.79-2.02 1.27-0.42 0.487-0.63 1.063-0.63 1.73v0c0 0.8 0.26 1.473 0.78 2.02 0.513 0.553 1.187 0.83 2.02 0.83v0c0.667 0 1.467-0.267 2.4-0.8v0l3.15-1.9 0.1 0.65-3.7 2.4c-0.833 0.533-1.567 0.917-2.2 1.15-0.633 0.233-1.3 0.35-2 0.35zM198.28 0.6c-1.4 0-2.55-0.317-3.45-0.95-0.9-0.633-1.35-1.683-1.35-3.15v0-11.75c0-0.867-0.057-1.483-0.17-1.85-0.12-0.367-0.347-0.607-0.68-0.72-0.333-0.12-0.9-0.18-1.7-0.18v0c-0.133 0-0.2-0.107-0.2-0.32 0-0.22 0.067-0.33 0.2-0.33v0c1.333-0.033 2.417-0.393 3.25-1.08 0.833-0.68 1.317-1.587 1.45-2.72v0c0-0.1 0.133-0.15 0.4-0.15v0c0.233 0 0.35 0.05 0.35 0.15v0 17.25c0 2.7 1.317 4.05 3.95 4.05v0c1.533 0 2.867-0.467 4-1.4v0l0.1-0.05c0.133 0 0.233 0.073 0.3 0.22 0.067 0.153 0.05 0.263-0.05 0.33v0c-1.233 0.967-2.34 1.65-3.32 2.05-0.987 0.4-2.013 0.6-3.08 0.6zM203.13-16.85c-2.133-0.533-4.667-0.8-7.6-0.8v0-1.1c2.1 0 4.7-0.167 7.8-0.5v0c0.067 0 0.143 0.123 0.23 0.37 0.08 0.253 0.12 0.53 0.12 0.83v0c0 0.267-0.057 0.54-0.17 0.82-0.12 0.287-0.247 0.413-0.38 0.38zM217.33 0.6c-2.167 0-3.983-0.477-5.45-1.43-1.467-0.947-2.55-2.17-3.25-3.67-0.7-1.5-1.05-3.083-1.05-4.75v0c0-2.133 0.533-3.993 1.6-5.58 1.067-1.58 2.443-2.797 4.13-3.65 1.68-0.847 3.403-1.27 5.17-1.27v0c1.467 0 2.81 0.29 4.03 0.87 1.213 0.587 1.82 1.313 1.82 2.18v0c0 0.433-0.157 0.807-0.47 1.12-0.32 0.32-0.747 0.48-1.28 0.48v0c-0.9 0-1.633-0.55-2.2-1.65v0c-0.433-0.667-0.9-1.167-1.4-1.5-0.5-0.333-1.217-0.5-2.15-0.5v0c-1.867 0-3.323 0.727-4.37 2.18-1.053 1.447-1.58 3.387-1.58 5.82v0c0 2.8 0.7 5.1 2.1 6.9 1.4 1.8 3.5 2.7 6.3 2.7v0c2.033 0 3.733-0.55 5.1-1.65v0h0.05c0.1 0 0.193 0.05 0.28 0.15 0.08 0.1 0.087 0.183 0.02 0.25v0c-1.167 1.033-2.34 1.79-3.52 2.27-1.187 0.487-2.48 0.73-3.88 0.73zM227.63 0c-0.1 0-0.15-0.1-0.15-0.3 0-0.2 0.05-0.3 0.15-0.3v0c0.9 0 1.567-0.093 2-0.28 0.433-0.18 0.733-0.513 0.9-1 0.167-0.48 0.25-1.203 0.25-2.17v0-25.85c0-1.2-0.117-2.067-0.35-2.6-0.233-0.533-0.65-0.8-1.25-0.8v0c-0.5 0-1.267 0.233-2.3 0.7v0l-0.1 0.05c-0.1 0-0.183-0.083-0.25-0.25-0.067-0.167-0.033-0.283 0.1-0.35v0l6.35-3.1h0.15c0.133 0 0.243 0.04 0.33 0.12 0.08 0.087 0.12 0.18 0.12 0.28v0 31.8c0 1 0.083 1.733 0.25 2.2 0.167 0.467 0.467 0.79 0.9 0.97 0.433 0.187 1.1 0.28 2 0.28v0c0.1 0 0.15 0.1 0.15 0.3 0 0.2-0.05 0.3-0.15 0.3v0c-0.767 0-1.383-0.017-1.85-0.05v0l-2.7-0.05-2.7 0.05c-0.467 0.033-1.083 0.05-1.85 0.05zM241.08 0c-0.1 0-0.15-0.1-0.15-0.3 0-0.2 0.05-0.3 0.15-0.3v0c0.9 0 1.567-0.093 2-0.28 0.433-0.18 0.733-0.513 0.9-1 0.167-0.48 0.25-1.203 0.25-2.17v0-7.95c0-1.967-0.373-3.433-1.12-4.4-0.753-0.967-1.913-1.45-3.48-1.45v0c-1.233 0-2.483 0.39-3.75 1.17-1.267 0.787-2.35 1.847-3.25 3.18v0l-0.2-0.6c1.5-1.967 2.96-3.41 4.38-4.33 1.413-0.913 2.903-1.37 4.47-1.37v0c1.833 0 3.25 0.517 4.25 1.55 1 1.033 1.5 2.533 1.5 4.5v0 9.7c0 1 0.083 1.733 0.25 2.2 0.167 0.467 0.467 0.79 0.9 0.97 0.433 0.187 1.1 0.28 2 0.28v0c0.1 0 0.15 0.1 0.15 0.3 0 0.2-0.05 0.3-0.15 0.3v0c-0.767 0-1.383-0.017-1.85-0.05v0l-2.7-0.05-2.7 0.05c-0.467 0.033-1.083 0.05-1.85 0.05z" fill="#ffffff" fill-rule="nonzero" stroke="none" stroke-width="1" stroke-linecap="butt" stroke-linejoin="miter" stroke-miterlimit="10" stroke-dasharray="" stroke-dashoffset="0" font-family="none" font-weight="none" font-size="none" text-anchor="none" style="mix-blend-mode: normal" data-fill-palette-color="primary" opacity="1"></path><path d="M114.55 17.05c2.1 0 3.867 0.15 5.3 0.45 1.433 0.3 2.867 0.817 4.3 1.55v0c0.233 0.133 0.367 0.25 0.4 0.35 0.033 0.1 0.083 0.35 0.15 0.75v0l0.6 5.95c0 0.1-0.09 0.157-0.27 0.17-0.187 0.02-0.297-0.02-0.33-0.12v0c-1.533-5.567-4.967-8.35-10.3-8.35v0c-2.8 0-5.273 0.617-7.42 1.85-2.153 1.233-3.813 2.99-4.98 5.27-1.167 2.287-1.75 4.947-1.75 7.98v0c0 2.9 0.65 5.557 1.95 7.97 1.3 2.42 3.043 4.33 5.23 5.73 2.18 1.4 4.553 2.1 7.12 2.1v0c2.733 0 4.95-0.667 6.65-2 1.7-1.333 3-3.367 3.9-6.1v0c0-0.067 0.083-0.1 0.25-0.1v0c0.233 0 0.35 0.05 0.35 0.15v0l-0.5 5.5c-0.033 0.4-0.083 0.65-0.15 0.75-0.067 0.1-0.2 0.217-0.4 0.35v0c-1.733 0.833-3.357 1.417-4.87 1.75-1.52 0.333-3.263 0.5-5.23 0.5v0c-3.5 0-6.623-0.693-9.37-2.08-2.753-1.38-4.897-3.32-6.43-5.82-1.533-2.5-2.3-5.367-2.3-8.6v0c0-3.133 0.783-5.91 2.35-8.33 1.567-2.413 3.727-4.287 6.48-5.62 2.747-1.333 5.837-2 9.27-2zM139.85 49.5c-1.933 0-3.64-0.477-5.12-1.43-1.487-0.947-2.63-2.23-3.43-3.85-0.8-1.613-1.2-3.37-1.2-5.27v0c0-2.167 0.527-4.01 1.58-5.53 1.047-1.513 2.397-2.643 4.05-3.39 1.647-0.753 3.32-1.13 5.02-1.13v0c1.967 0 3.683 0.483 5.15 1.45 1.467 0.967 2.593 2.24 3.38 3.82 0.78 1.587 1.17 3.263 1.17 5.03v0c0 2.067-0.483 3.873-1.45 5.42-0.967 1.553-2.257 2.753-3.87 3.6-1.62 0.853-3.38 1.28-5.28 1.28zM141.3 48.55c1.833 0 3.25-0.65 4.25-1.95 1-1.3 1.5-3.3 1.5-6v0c0-2.067-0.34-3.917-1.02-5.55-0.687-1.633-1.63-2.91-2.83-3.83-1.2-0.913-2.567-1.37-4.1-1.37v0c-1.8 0-3.19 0.65-4.17 1.95-0.987 1.3-1.48 3.167-1.48 5.6v0c0 2.033 0.333 3.9 1 5.6 0.667 1.7 1.6 3.05 2.8 4.05 1.2 1 2.55 1.5 4.05 1.5zM180.25 48.85c-0.1 0-0.15-0.1-0.15-0.3 0-0.2 0.05-0.3 0.15-0.3v0c0.9 0 1.567-0.093 2-0.28 0.433-0.18 0.733-0.513 0.9-1 0.167-0.48 0.25-1.203 0.25-2.17v0-7.95c0-1.967-0.35-3.433-1.05-4.4-0.7-0.967-1.783-1.45-3.25-1.45v0c-1.167 0-2.357 0.39-3.57 1.17-1.22 0.787-2.263 1.847-3.13 3.18v0l-0.2-0.6c1.4-1.967 2.793-3.41 4.18-4.33 1.38-0.913 2.837-1.37 4.37-1.37v0c1.767 0 3.117 0.5 4.05 1.5 0.933 1 1.4 2.517 1.4 4.55v0 9.7c0 1 0.083 1.733 0.25 2.2 0.167 0.467 0.467 0.79 0.9 0.97 0.433 0.187 1.1 0.28 2 0.28v0c0.1 0 0.15 0.1 0.15 0.3 0 0.2-0.05 0.3-0.15 0.3v0c-0.767 0-1.383-0.017-1.85-0.05v0l-2.7-0.05-2.7 0.05c-0.467 0.033-1.083 0.05-1.85 0.05zM167.35 48.85c-0.1 0-0.15-0.1-0.15-0.3 0-0.2 0.05-0.3 0.15-0.3v0c0.9 0 1.567-0.093 2-0.28 0.433-0.18 0.727-0.503 0.88-0.97 0.147-0.467 0.22-1.2 0.22-2.2v0-7.95c0-1.967-0.35-3.433-1.05-4.4-0.7-0.967-1.767-1.45-3.2-1.45v0c-1.2 0-2.4 0.39-3.6 1.17-1.2 0.787-2.233 1.847-3.1 3.18v0l-0.2-0.6c1.4-1.967 2.793-3.41 4.18-4.33 1.38-0.913 2.82-1.37 4.32-1.37v0c1.767 0 3.127 0.5 4.08 1.5 0.947 1 1.42 2.483 1.42 4.45v0 9.8c0 1 0.083 1.733 0.25 2.2 0.167 0.467 0.467 0.79 0.9 0.97 0.433 0.187 1.1 0.28 2 0.28v0c0.1 0 0.15 0.1 0.15 0.3 0 0.2-0.05 0.3-0.15 0.3v0c-0.767 0-1.383-0.017-1.85-0.05v0l-2.7-0.05-2.75 0.05c-0.433 0.033-1.033 0.05-1.8 0.05zM154.5 48.85c-0.1 0-0.15-0.1-0.15-0.3 0-0.2 0.05-0.3 0.15-0.3v0c0.9 0 1.567-0.093 2-0.28 0.433-0.18 0.727-0.503 0.88-0.97 0.147-0.467 0.22-1.2 0.22-2.2v0-9.9c0-1.133-0.133-1.95-0.4-2.45-0.267-0.5-0.717-0.75-1.35-0.75v0c-0.533 0-1.433 0.25-2.7 0.75v0h-0.1c-0.133 0-0.223-0.077-0.27-0.23-0.053-0.147-0.013-0.253 0.12-0.32v0l5.8-2.75c0.067-0.033 0.167-0.05 0.3-0.05v0c0.3 0 0.617 0.383 0.95 1.15 0.333 0.767 0.5 1.75 0.5 2.95v0 11.6c0 1 0.077 1.733 0.23 2.2 0.147 0.467 0.437 0.79 0.87 0.97 0.433 0.187 1.1 0.28 2 0.28v0c0.1 0 0.15 0.1 0.15 0.3 0 0.2-0.05 0.3-0.15 0.3v0c-0.767 0-1.367-0.017-1.8-0.05v0l-2.7-0.05-2.75 0.05c-0.433 0.033-1.033 0.05-1.8 0.05zM192 62.6c-0.1 0-0.15-0.1-0.15-0.3 0-0.2 0.05-0.3 0.15-0.3v0c0.9 0 1.567-0.09 2-0.27 0.433-0.187 0.733-0.513 0.9-0.98 0.167-0.467 0.25-1.2 0.25-2.2v0-23.5c0-1.2-0.133-2.06-0.4-2.58-0.267-0.513-0.733-0.77-1.4-0.77v0c-0.733 0-1.617 0.233-2.65 0.7v0l-0.1 0.05c-0.133 0-0.223-0.083-0.27-0.25-0.053-0.167-0.03-0.283 0.07-0.35v0l5.55-2.65c0.067-0.033 0.183-0.05 0.35-0.05v0c0.467 0 0.86 0.39 1.18 1.17 0.313 0.787 0.47 1.88 0.47 3.28v0 24.95c0 1 0.127 1.733 0.38 2.2 0.247 0.467 0.713 0.793 1.4 0.98 0.68 0.18 1.753 0.27 3.22 0.27v0c0.067 0 0.1 0.1 0.1 0.3 0 0.2-0.033 0.3-0.1 0.3v0c-1.133 0-2.033-0.017-2.7-0.05v0l-3.65-0.05-2.75 0.05c-0.467 0.033-1.083 0.05-1.85 0.05zM203.25 49.5c-1.3 0-2.433-0.157-3.4-0.47-0.967-0.32-2.033-0.88-3.2-1.68v0l0.7-2.75c1.033 1.267 2.11 2.223 3.23 2.87 1.113 0.653 2.503 0.98 4.17 0.98v0c1.767 0 3.217-0.777 4.35-2.33 1.133-1.547 1.7-3.703 1.7-6.47v0c0-2.8-0.617-4.977-1.85-6.53-1.233-1.547-2.8-2.32-4.7-2.32v0c-1.333 0-2.54 0.35-3.62 1.05-1.087 0.7-2.263 1.733-3.53 3.1v0l-0.4-0.4c1.7-1.933 3.333-3.357 4.9-4.27 1.567-0.92 3.15-1.38 4.75-1.38v0c1.367 0 2.633 0.367 3.8 1.1 1.167 0.733 2.1 1.8 2.8 3.2 0.7 1.4 1.05 3.033 1.05 4.9v0c0 2.5-0.567 4.61-1.7 6.33-1.133 1.713-2.523 2.987-4.17 3.82-1.653 0.833-3.28 1.25-4.88 1.25zM231.65 49.15c-0.133 0.067-0.267 0.1-0.4 0.1v0c-0.5 0-0.933-0.383-1.3-1.15-0.367-0.767-0.55-1.783-0.55-3.05v0-9.45c0-3.733-1.05-5.6-3.15-5.6v0c-1.133 0-1.99 0.373-2.57 1.12-0.587 0.753-0.98 1.613-1.18 2.58v0c-0.133 0.633-0.327 1.133-0.58 1.5-0.247 0.367-0.687 0.55-1.32 0.55v0c-0.533 0-0.94-0.15-1.22-0.45-0.287-0.3-0.43-0.65-0.43-1.05v0c0-0.8 0.517-1.6 1.55-2.4 1.033-0.8 2.267-1.467 3.7-2 1.433-0.533 2.717-0.8 3.85-0.8v0c1.367 0 2.4 0.433 3.1 1.3 0.7 0.867 1.05 2.117 1.05 3.75v0 9.35c0 1.167 0.15 2.017 0.45 2.55 0.3 0.533 0.783 0.8 1.45 0.8v0c0.667 0 1.5-0.217 2.5-0.65v0h0.1c0.133 0 0.217 0.073 0.25 0.22 0.033 0.153-0.017 0.263-0.15 0.33v0zM222.65 49.2c-1.233 0-2.19-0.327-2.87-0.98-0.687-0.647-1.03-1.47-1.03-2.47v0c0-1 0.4-1.867 1.2-2.6 0.8-0.733 2.117-1.433 3.95-2.1v0l6-2.25 0.15 0.65-5.3 2.05c-0.933 0.367-1.61 0.79-2.03 1.27-0.413 0.487-0.62 1.063-0.62 1.73v0c0 0.8 0.26 1.473 0.78 2.02 0.513 0.553 1.187 0.83 2.02 0.83v0c0.667 0 1.467-0.267 2.4-0.8v0l3.15-1.9 0.1 0.65-3.7 2.4c-0.833 0.533-1.567 0.917-2.2 1.15-0.633 0.233-1.3 0.35-2 0.35zM252.6 48.85c-0.1 0-0.15-0.1-0.15-0.3 0-0.2 0.05-0.3 0.15-0.3v0c0.9 0 1.567-0.093 2-0.28 0.433-0.18 0.723-0.503 0.87-0.97 0.153-0.467 0.23-1.2 0.23-2.2v0-8.1c0-2-0.373-3.46-1.12-4.38-0.753-0.913-1.913-1.37-3.48-1.37v0c-1.233 0-2.473 0.383-3.72 1.15-1.253 0.767-2.33 1.817-3.23 3.15v0l-0.2-0.6c1.467-1.967 2.917-3.417 4.35-4.35 1.433-0.933 2.917-1.4 4.45-1.4v0c1.833 0 3.26 0.523 4.28 1.57 1.013 1.053 1.52 2.563 1.52 4.53v0 9.8c0 1 0.077 1.733 0.23 2.2 0.147 0.467 0.437 0.79 0.87 0.97 0.433 0.187 1.1 0.28 2 0.28v0c0.1 0 0.15 0.1 0.15 0.3 0 0.2-0.05 0.3-0.15 0.3v0c-0.767 0-1.367-0.017-1.8-0.05v0l-2.7-0.05-2.75 0.05c-0.433 0.033-1.033 0.05-1.8 0.05zM239.15 48.85c-0.1 0-0.15-0.1-0.15-0.3 0-0.2 0.05-0.3 0.15-0.3v0c0.9 0 1.567-0.093 2-0.28 0.433-0.18 0.727-0.503 0.88-0.97 0.147-0.467 0.22-1.2 0.22-2.2v0-9.9c0-1.133-0.133-1.95-0.4-2.45-0.267-0.5-0.717-0.75-1.35-0.75v0c-0.533 0-1.433 0.25-2.7 0.75v0h-0.1c-0.133 0-0.223-0.077-0.27-0.23-0.053-0.147-0.013-0.253 0.12-0.32v0l5.8-2.75c0.067-0.033 0.167-0.05 0.3-0.05v0c0.3 0 0.617 0.383 0.95 1.15 0.333 0.767 0.5 1.75 0.5 2.95v0 11.6c0 1 0.077 1.733 0.23 2.2 0.147 0.467 0.437 0.79 0.87 0.97 0.433 0.187 1.1 0.28 2 0.28v0c0.1 0 0.15 0.1 0.15 0.3 0 0.2-0.05 0.3-0.15 0.3v0c-0.767 0-1.367-0.017-1.8-0.05v0l-2.7-0.05-2.75 0.05c-0.433 0.033-1.033 0.05-1.8 0.05zM284.3 29.55c0.1 0 0.15 0.1 0.15 0.3 0 0.2-0.05 0.3-0.15 0.3v0c-0.833 0-1.557 0.293-2.17 0.88-0.62 0.58-1.18 1.57-1.68 2.97v0l-6.1 16.25c-1.233 3.233-2.39 5.757-3.47 7.57-1.087 1.82-2.203 3.123-3.35 3.91-1.153 0.78-2.48 1.17-3.98 1.17v0c-0.733 0-1.343-0.167-1.83-0.5-0.48-0.333-0.72-0.817-0.72-1.45v0c0-0.467 0.15-0.833 0.45-1.1 0.3-0.267 0.667-0.4 1.1-0.4v0c0.433 0 0.8 0.05 1.1 0.15 0.3 0.1 0.617 0.267 0.95 0.5v0c0.067 0.033 0.26 0.133 0.58 0.3 0.313 0.167 0.703 0.25 1.17 0.25v0c0.833 0 1.617-0.373 2.35-1.12 0.733-0.753 1.523-2.013 2.37-3.78 0.853-1.767 1.88-4.233 3.08-7.4v0l-0.05 1.4-7.9-16.05c-0.767-1.467-1.35-2.427-1.75-2.88-0.4-0.447-0.917-0.67-1.55-0.67v0c-0.067 0-0.1-0.1-0.1-0.3 0-0.2 0.033-0.3 0.1-0.3v0l1.7 0.05c0.4 0.033 0.95 0.05 1.65 0.05v0l3.2-0.05c0.467-0.033 1.117-0.05 1.95-0.05v0c0.067 0 0.1 0.1 0.1 0.3 0 0.2-0.033 0.3-0.1 0.3v0c-1.933 0-2.9 0.383-2.9 1.15v0c0 0.2 0.083 0.467 0.25 0.8v0l6.85 14.1-1.15 2.05 4.9-14.1c0.267-0.8 0.4-1.433 0.4-1.9v0c0-0.767-0.3-1.31-0.9-1.63-0.6-0.313-1.583-0.47-2.95-0.47v0c-0.067 0-0.1-0.1-0.1-0.3 0-0.2 0.033-0.3 0.1-0.3v0c0.9 0 1.583 0.017 2.05 0.05v0l3 0.05 1.8-0.05c0.333-0.033 0.85-0.05 1.55-0.05z" fill="#ffffff" fill-rule="nonzero" stroke="none" stroke-width="1" stroke-linecap="butt" stroke-linejoin="miter" stroke-miterlimit="10" stroke-dasharray="" stroke-dashoffset="0" font-family="none" font-weight="none" font-size="none" text-anchor="none" style="mix-blend-mode: normal" data-fill-palette-color="primary" opacity="1"></path></g></svg></g></svg></g></svg></g></svg></g></svg></g></svg></g></svg></g><g><path d="M0 247.2v-247.2h395.52v247.2zM388.561 240.241v-233.282h-381.602v233.282z" fill="#ffffff" fill-rule="nonzero" stroke="none" stroke-width="1" stroke-linecap="butt" stroke-linejoin="miter" stroke-miterlimit="10" stroke-dasharray="" stroke-dashoffset="0" font-family="none" font-weight="none" font-size="none" text-anchor="none" style="mix-blend-mode: normal" data-fill-palette-color="tertiary"></path></g></svg></g><defs></defs></svg><rect width="395.52" height="247.2" fill="none" stroke="none" visibility="hidden"></rect></g></svg></g></svg>